<svg width="201" height="40" viewBox="0 0 201 40" fill="none" xmlns="http://www.w3.org/2000/svg">
<path d="M21.7535 16.4313L22.756 10.5469H1.10729L0 17.0373H7.40735L3.61145 39.3055H10.9292L14.7252 17.0373H21.6486L21.7535 16.4313Z" fill="#086C38"/>
<path d="M41.4368 26.1072C44.4446 24.8122 45.6768 21.5126 45.6717 18.5084C45.6717 17.1978 45.4672 16.0531 44.9385 14.8462C44.1753 13.0333 42.9432 11.8937 41.5116 11.2876C40.0799 10.6763 38.4887 10.5467 36.8476 10.5467H25.3499L20.4464 39.3054H27.764L29.5897 28.5934C30.4177 28.583 31.2507 28.5571 32.0489 28.5571C33.0914 28.5571 33.8496 28.6815 34.3833 28.8886C35.1765 29.2098 35.4958 29.6086 35.7451 30.308C35.9846 31.0074 36.0393 32.0328 36.0393 33.2813C36.0393 33.8614 36.0294 34.4935 36.0294 35.1615C36.0294 36.4047 36.1489 37.5288 36.4632 38.7512L36.6028 39.2952H44.5888L44.1548 38.2645C43.1772 35.9438 43.207 34.0843 43.0973 31.3754C43.0326 29.7489 42.9728 28.3657 42.2943 27.2004C42.045 26.7808 41.7206 26.4286 41.3167 26.1386C41.3566 26.1231 41.3916 26.1076 41.4315 26.092L41.4368 26.1072ZM37.2519 21.6785L37.2469 21.6836C36.6932 22.0928 35.2617 22.2016 34.2839 22.1807C33.0867 22.1807 31.8996 22.155 30.6923 22.1445L31.5652 16.9233H35.8102C36.5783 16.9233 37.2815 17.084 37.7205 17.3843C38.1495 17.6952 38.399 18.0679 38.4189 18.8917C38.4189 20.0209 38.0399 21.1553 37.2519 21.6785Z" fill="#086C38"/>
<path d="M62.9359 25.4546C62.6018 27.4179 62.2875 29.4224 61.5392 30.8314C60.776 32.2247 59.7733 33.0899 57.5635 33.1209C56.4114 33.1209 55.4136 32.862 54.7552 32.3594C54.1066 31.8517 53.7026 31.1422 53.6877 29.8733C53.6877 28.6145 53.9371 27.2627 54.1615 25.9417L56.8053 10.5471H49.4878L47.0385 24.9161C46.7391 26.6669 46.47 28.4901 46.47 30.3396C46.47 32.8466 47.1384 34.9133 48.4254 36.4569C49.7125 38.0058 51.558 38.9949 53.7977 39.5182C54.9849 39.7979 56.227 40 57.489 40C59.0603 40 60.8012 39.7203 62.3126 39.1402C65.096 38.1094 66.8569 36.3534 67.9491 34.2245C69.0515 32.0956 69.5354 29.6247 69.9844 27.0245L72.7718 10.5473H65.4601L62.9359 25.4546Z" fill="#086C38"/>
<path d="M72.7726 10.5417L72.7718 10.5473L72.7776 10.5469L72.7726 10.5417Z" fill="#086C38"/>
<path d="M200.505 0.0938963C197.268 2.2228 192.289 -0.325646 188.713 0.254624C180.892 1.52885 179.19 7.68767 178.836 10.2311C178.662 10.3967 178.492 10.5626 178.333 10.7282C177.889 11.179 177.385 11.6917 176.911 12.1942C174.976 14.2557 174.781 14.7271 174.877 15.183C174.916 15.3592 174.995 15.9652 175.095 16.0946C175.7 15.0897 176.866 13.458 178.882 11.6347C181.6 9.04992 186.115 5.7659 192.19 4.78194C192.19 4.78194 183.047 8.39747 180.013 12.8263C182.842 15.209 185.865 15.8514 188.629 15.2505C188.629 15.2505 188.968 15.1779 189.337 15.0692C189.636 14.9604 189.945 14.8308 190.235 14.6858H190.24C190.24 14.6858 190.255 14.6704 190.255 14.6652C190.498 14.5564 190.734 14.432 190.972 14.3077C191.022 14.2766 191.072 14.2507 191.122 14.2248C191.382 14.0798 191.636 13.9245 191.89 13.7586C191.826 13.7326 188.684 12.5051 187.536 10.5161C187.9 10.7283 190.609 11.8524 193.921 12.1425L193.996 12.0753C194.969 11.1014 195.786 10.2312 196.33 9.49576C196.33 9.49576 193.916 8.9829 192.24 7.61536C192.58 7.70352 195.069 8.06081 197.852 7.42885C198.351 6.66749 198.804 5.906 199.189 5.18086L199.727 4.13452C201.244 1.13006 201.273 -0.408652 200.505 0.0938963Z" fill="#086C38"/>
<path d="M117.676 32.007H117.681C117.646 31.2405 117.661 30.2148 117.527 29.153C117.387 28.0963 117.113 26.9465 116.31 25.9932C116.16 25.8224 116.005 25.672 115.851 25.5322C116.754 25.0245 117.577 24.4081 118.275 23.6363C119.552 22.2376 120.32 20.3003 120.305 17.9383C120.33 15.3226 119.173 13.2817 117.487 12.1318C115.806 10.9663 113.721 10.5572 111.645 10.552H102.417L97.6237 39.3521H102.447L104.457 27.5318H107.58C108.603 27.5318 109.78 27.5576 110.708 27.8012C111.655 28.0548 112.219 28.433 112.498 29.0545C112.573 29.1995 112.693 29.7591 112.748 30.3392C112.808 30.9245 112.838 31.5512 112.853 32.0122C112.962 34.1515 112.982 36.3582 113.96 38.627L114.279 39.3522H119.382L118.744 37.6584C118.01 35.7056 117.786 34.1878 117.676 32.007ZM114.145 21.1501V21.1553C113.352 22.0151 112.429 22.4607 111.316 22.7196C110.204 22.9734 108.922 22.9993 107.585 22.9993C106.807 22.9993 106.004 22.9839 105.196 22.9733L106.508 15.1103H111.007C112.314 15.1 113.506 15.3382 114.22 15.7733C114.579 15.9909 114.828 16.2395 115.013 16.5865C115.197 16.9337 115.332 17.41 115.332 18.1196C115.327 19.2955 114.933 20.2592 114.145 21.1501Z" fill="#0AAF4C"/>
<path d="M85.0228 23.5277L84.3102 28.0498H92.5056C92.1616 29.961 91.4281 31.5566 90.3656 32.7167C89.0586 34.1361 87.2681 34.9959 84.7788 35.0062C82.2148 34.9908 80.5639 34.1205 79.4265 32.701C78.2943 31.2766 77.6758 29.1685 77.6807 26.6252C77.6807 23.6519 78.5786 20.6114 80.2096 18.3943C81.8557 16.1722 84.1304 14.7477 87.1531 14.7425C88.4849 14.7425 89.6922 15.0222 90.6449 15.5818C91.6026 16.1463 92.3408 16.9648 92.8247 18.2441C93.0292 18.8191 93.1589 19.4355 93.2588 20.14L93.4183 21.2587L98.282 20.9583L98.0525 19.5909C97.7981 18.0679 97.4739 16.6022 96.6158 15.0792C94.5756 11.5414 90.8744 10.0911 87.288 10.1014H86.9288C82.4445 10.0911 78.7931 12.1629 76.3689 15.2863C73.9397 18.4046 72.6677 22.533 72.6627 26.7753C72.6627 28.9561 73.1715 31.1316 74.0296 33.0429C76.0049 37.4614 79.9306 39.7975 84.45 39.7975H84.5546C86.5846 39.7872 88.7596 39.2483 90.6252 38.1401L90.4008 39.3521H94.9899L97.7983 23.5277H85.0228Z" fill="#0AAF4C"/>
<path d="M128.774 15.1466H141.505L141.689 14.1418L142.358 10.5417H124.719L119.886 39.3418H138.232L138.93 34.737H125.527L126.83 27.1121H139.001L139.784 22.5486H127.563L128.774 15.1466Z" fill="#0AAF4C"/>
<path d="M85.0138 23.5277H85.0228L85.0237 23.5226L85.0138 23.5277Z" fill="#0AAF4C"/>
<path d="M183.84 16.9234C183.206 16.7111 182.548 16.4263 181.865 16.0584L180.418 15.2814L178.128 28.9512V28.9615C178.038 29.5157 177.954 30.0648 177.868 30.619C177.489 29.6763 177.101 28.7283 176.686 27.791L169.04 10.5523H164.755L159.961 39.3523H164.714L167.902 20.1662C167.932 19.9954 167.957 19.8192 167.981 19.643C168.256 20.3269 168.536 21.0156 168.84 21.6993L176.627 39.3524H181.166L181.176 39.3473L184.822 17.2553L183.84 16.9234Z" fill="#0AAF4C"/>
<path d="M159.178 27.1174L159.966 22.5538H147.746L148.957 15.1518H161.682L161.866 14.1469L162.535 10.5469H144.896L140.064 39.3469H158.41L159.108 34.7421H145.705L147.007 27.1174H159.178Z" fill="#0AAF4C"/>
<path d="M187.096 36.3479C187.096 35.7521 186.658 35.602 186.164 35.602H185.021V38.4146H185.416V37.1197H185.919L186.608 38.4146H187.062L186.373 37.1197C186.738 37.1042 187.096 36.9021 187.096 36.3479ZM185.835 36.7053H185.416V36.0059H186.089C186.414 36.0059 186.702 36.0319 186.702 36.3892C186.702 36.7726 186.199 36.7053 185.835 36.7053Z" fill="#0AAF4C"/>
<path d="M185.954 34.4831C184.603 34.4831 183.535 35.5968 183.535 36.9901C183.535 38.3834 184.607 39.492 185.954 39.492C187.301 39.492 188.369 38.3837 188.369 36.9901C188.369 35.5965 187.307 34.4831 185.954 34.4831ZM185.954 39.0827C184.847 39.0827 183.929 38.1712 183.929 36.99C183.929 35.8088 184.852 34.8974 185.954 34.8974C187.057 34.8974 187.979 35.8141 187.979 36.99C187.979 38.1659 187.062 39.0827 185.954 39.0827Z" fill="#0AAF4C"/>
</svg>
